Coordinates
version=1
nRows=17
nColumns=24
inDegrees=yes

Units are S.I. units (second, meters, Newtons, ...)
Angles are in degrees.

endheader
time	pelvis_tilt	pelvis_list	pelvis_rotation	pelvis_tx	pelvis_ty	pelvis_tz	hip_flexion_r	hip_adduction_r	hip_rotation_r	knee_angle_r	ankle_angle_r	subtalar_angle_r	mtp_angle_r	hip_flexion_l	hip_adduction_l	hip_rotation_l	knee_angle_l	ankle_angle_l	subtalar_angle_l	mtp_angle_l	lumbar_extension	lumbar_bending	lumbar_rotation
      0.46100000	      1.00850803	      4.04931403	      2.20572121	     -0.76106267	      1.00698802	      0.25791712	     19.07995045	     -1.90179755	     -4.22427130	     -2.17863633	      2.63026753	    -12.69598036	      0.55271983	    -16.44960528	      7.28417280	      6.50150086	     -4.39363090	     10.45231638	    -12.14501851	     -0.00800903	     -5.66229794	     -5.87080377	     -3.59887052
      0.46516667	      1.03191029	      4.04895106	      2.25369965	     -0.75506993	      1.00654702	      0.25804605	     18.96675552	     -1.83164702	     -3.98643522	     -2.28095431	      2.61568283	    -12.84814880	      1.05607250	    -16.53171324	      7.24284548	      6.38711181	     -5.00829460	     10.59001090	    -11.74846742	     -0.10015862	     -5.62836094	     -5.84946003	     -3.80308619
      0.46933333	      1.08106930	      4.05666208	      2.27512565	     -0.74906446	      1.00616472	      0.25816374	     18.85462531	     -1.77103139	     -3.79965942	     -2.49485663	      2.54269020	    -12.89110739	      5.46293779	    -16.64063846	      7.22501908	      6.35353454	     -5.63010544	     10.68523969	    -11.55366813	     -0.58355278	     -5.62985152	     -5.82767614	     -3.78819304
      0.47350000	      1.12064850	      4.03043671	      2.30370297	     -0.74299545	      1.00581752	      0.25829844	     18.71566039	     -1.66963246	     -3.48385398	     -2.71032104	      2.46552157	    -13.11198967	      5.48282479	    -16.72398774	      7.16814674	      6.34185822	     -6.28172140	     10.76018013	    -11.38848447	     -0.56781931	     -5.60248897	     -5.74976796	     -3.80216424
      0.47766667	      1.16723055	      4.00703273	      2.32252477	     -0.73688406	      1.00551823	      0.25846048	     18.55581534	     -1.56772001	     -3.15398913	     -2.94803652	      2.31197429	    -13.34196358	      5.52608756	    -16.76214694	      7.10847758	      6.16656858	     -7.03332950	     10.81814994	    -11.01342052	     -0.51481818	     -5.56629005	     -5.69086294	     -3.83246205
      0.48183333	      1.20112465	      3.98700274	      2.33555424	     -0.73075127	      1.00523974	      0.25863192	     18.41607315	     -1.46932434	     -2.82370859	     -3.24644078	      2.14335335	    -13.54816261	      5.58507244	    -16.75826384	      7.05526009	      5.99949224	     -7.83689777	     10.86331931	    -10.64755830	     -0.42631746	     -5.52580361	     -5.62761692	     -3.84127399
      0.48600000	      1.25328313	      3.96373402	      2.33532384	     -0.72461376	      1.00501077	      0.25881465	     18.26191645	     -1.36570907	     -2.46852942	     -3.59294631	      1.92788053	    -13.77597143	      5.65385089	    -16.74926963	      7.00091369	      5.81878397	     -8.68858938	     10.89113511	    -10.27460111	     -0.30954492	     -5.50459844	     -5.56348121	     -3.84512589
      0.49016667	      1.27544226	      3.93616693	      2.34982199	     -0.71841624	      1.00480046	      0.25899553	     18.11902858	     -1.26208866	     -2.12548928	     -3.93795000	      1.67276040	    -14.02395710	      5.74260336	    -16.65676108	      6.93244865	      5.56297993	     -9.63285881	     10.86688227	     -9.82089937	     -0.13730703	     -5.42606612	     -5.49053045	     -3.83603504
      0.49433333	      1.34224834	      3.90520272	      2.34888656	     -0.71222888	      1.00466800	      0.25919604	     17.93606156	     -1.15200785	     -1.77901221	     -4.32410170	      1.39728264	    -14.26810760	      5.84445123	    -16.58080095	      6.85927282	      5.28103762	    -10.63569909	     10.83117384	     -9.33538354	      0.08760911	     -5.41072036	     -5.41034555	     -3.81683554
      0.49850000	      1.37812936	      3.86706172	      2.33502427	     -0.70600171	      1.00452590	      0.25940294	     17.80046918	     -1.03755536	     -1.47501785	     -4.76000883	      1.10049618	    -14.45771105	      7.85468347	    -16.43470659	      6.77778247	      4.93789192	    -11.69682044	     10.69000162	     -8.88394994	      5.12110690	     -5.35062845	     -5.31393123	     -3.78235401
      0.50266667	      1.40493349	      3.85074886	      2.34280480	     -0.69981197	      1.00441776	      0.25961733	     17.66077850	     -0.94989041	     -1.13635893	     -5.19074755	      0.75858950	    -14.76026241	      7.83040687	    -16.22761313	      6.71194184	      4.63374821	    -12.85517669	     10.55604213	     -8.38729126	      5.19730994	     -5.28730020	     -5.26128305	     -3.75842810
      0.50683333	      1.44465150	      3.81443398	      2.33945273	     -0.69361046	      1.00435711	      0.25983838	     17.51785443	     -0.84284115	     -0.84131423	     -5.65843822	      0.44414375	    -14.97797426	      7.81718249	    -15.98685108	      6.61773767	      4.24519692	    -14.09852296	     10.40587558	     -7.80857560	      5.33686679	     -5.23493573	     -5.17666969	     -3.71668817
      0.51100000	      1.47655324	      3.77816856	      2.33427640	     -0.68741373	      1.00431584	      0.26007321	     17.38787032	     -0.73913630	     -0.56204225	     -6.14833394	      0.13479284	    -15.19064373	      7.81033904	    -15.69273828	      6.51599860	      3.83292279	    -15.42023787	     10.20916701	     -7.21256045	      5.53914259	     -5.17566224	     -5.09053971	     -3.66901540
      0.51516667	      1.50220154	      3.74335793	      2.32944796	     -0.68124440	      1.00429498	      0.26031633	     17.27409021	     -0.64095426	     -0.31217869	     -6.66450170	     -0.16069181	    -15.37958602	      7.80728417	    -15.33609724	      6.40671113	      3.38706326	    -16.83380543	      9.95863893	     -6.59581946	      5.79382427	     -5.10884668	     -5.00583786	     -3.61799924
      0.51933333	      1.63861084	      3.66820386	      2.33384154	     -0.67508871	      1.00446056	      0.26056785	     17.01462253	     -0.50104350	     -0.09337697	     -7.13532379	     -0.50275794	    -15.64365646	      7.80042181	    -15.05698019	      6.22403234	      2.87501981	    -18.31132753	      9.66371629	     -5.84758534	      6.82349060	     -5.19398778	     -4.86042714	     -3.53641864
      0.52350000	      1.55915418	      3.65724044	      2.31908044	     -0.66898608	      1.00433124	      0.26082706	     17.06543193	     -0.43875511	      0.10134212	     -7.76794880	     -0.67149220	    -15.69978042	      7.79840205	    -14.49039060	      6.14000236	      2.44685533	    -19.88332070	      9.26631607	     -5.38713825	      7.10379245	     -4.99425378	     -4.81991327	     -3.50736468
      0.52766667	      1.61925897	      3.58044143	      2.31614016	     -0.66289884	      1.00442478	      0.26111136	     16.93059457	     -0.30559974	      0.26139907	     -8.33503633	     -0.90349898	    -15.86202457	      7.61256052	    -14.02273241	      5.93690587	      1.88968227	    -21.51881863	      8.76525799	     -4.79348300	     15.37008924	     -4.98724742	     -4.67507459	     -3.43106408
